<svg xmlns="http://www.w3.org/2000/svg" xmlns:xlink="http://www.w3.org/1999/xlink" width="1080" zoomAndPan="magnify" viewBox="0 0 810 1012.49997" height="1350" preserveAspectRatio="xMidYMid meet" version="1.0"><defs><clipPath id="2ce6cbe777"><path d="M 0.199219 119.539062 L 809.800781 119.539062 L 809.800781 971.121094 L 0.199219 971.121094 Z M 0.199219 119.539062 " clip-rule="nonzero"/></clipPath></defs><g clip-path="url(#2ce6cbe777)"><path fill="#000000" d="M -20.933594 545.46875 L -20.933594 119.539062 L 830.925781 119.539062 L 830.925781 971.402344 L -20.933594 971.402344 Z M 521.792969 616.679688 C 544.921875 609.773438 559.144531 596.128906 565.71875 574.417969 C 567.464844 568.511719 567.550781 567.101562 567.882812 522.757812 L 568.128906 477.167969 L 554.984375 477.417969 L 541.839844 477.664062 L 541.425781 524.25 L 541.011719 570.839844 L 538.847656 575.5 C 534.605469 584.566406 527.699219 589.976562 516.140625 593.300781 C 508.902344 595.464844 488.1875 594.714844 480.867188 592.054688 C 471.882812 588.890625 464.808594 582.070312 461.148438 573.167969 C 459.652344 569.425781 459.484375 566.597656 459.234375 523.257812 L 458.988281 477.253906 L 433.203125 477.253906 L 433.449219 522.84375 C 433.78125 573.503906 433.617188 572.007812 439.855469 584.984375 C 448.007812 602.207031 463.980469 613.6875 486.191406 618.261719 C 495.425781 620.175781 512.5625 619.425781 521.796875 616.683594 Z M 245.6875 615.101562 C 245.933594 614.519531 246.019531 602.453125 245.933594 588.148438 L 245.6875 562.191406 L 233.460938 573.503906 L 221.148438 584.820312 L 221.148438 599.960938 C 221.148438 608.28125 221.394531 615.351562 221.726562 615.601562 C 221.976562 615.9375 227.46875 616.183594 233.789062 616.183594 C 242.273438 616.183594 245.433594 615.9375 245.683594 615.101562 Z M 122.148438 572.921875 L 122.148438 530.496094 L 125.144531 530.496094 C 127.976562 530.496094 129.804688 532.160156 154.09375 555.785156 C 181.878906 582.738281 184.292969 584.566406 190.613281 583.402344 C 195.191406 582.570312 198.601562 579.742188 227.800781 553.371094 C 251.34375 532.074219 255.75 528.414062 258.246094 528.164062 L 261.078125 527.917969 L 261.078125 615.347656 L 286.863281 615.347656 L 286.863281 477.25 L 273.136719 477.25 L 259.328125 489.976562 C 251.757812 496.882812 236.699219 510.859375 225.804688 520.921875 C 192.113281 552.035156 192.027344 552.121094 188.867188 552.121094 C 186.289062 552.121094 183.957031 550.042969 163.074219 529.824219 C 150.347656 517.511719 132.960938 500.710938 124.308594 492.308594 L 108.503906 477.164062 L 102.679688 477.414062 L 96.773438 477.660156 L 96.527344 546.542969 L 96.359375 615.339844 L 122.148438 615.339844 L 122.148438 572.914062 Z M 416.804688 613.933594 C 418.050781 612.769531 418.304688 611.273438 418.304688 603.953125 C 418.304688 595.882812 418.136719 595.136719 416.226562 593.304688 L 414.226562 591.226562 L 335.949219 591.226562 L 335.949219 477.257812 L 324.050781 477.257812 C 315.902344 477.257812 311.824219 477.589844 311.160156 478.253906 C 310.410156 479.003906 310.160156 495.476562 310.160156 547.304688 L 310.160156 615.355469 L 362.734375 615.355469 C 410.402344 615.355469 415.398438 615.1875 416.808594 613.941406 Z M 697.988281 612.6875 C 705.558594 609.113281 712.210938 601.460938 714.542969 593.554688 L 715.207031 591.226562 L 590.507812 591.226562 L 590.507812 615.433594 L 641.917969 615.183594 L 693.246094 614.9375 L 697.988281 612.691406 Z M 688.003906 556.949219 C 692.746094 555.539062 701.316406 547.132812 704.0625 541.226562 C 707.890625 532.992188 713.960938 533.824219 648.324219 533.824219 L 590.507812 533.824219 L 590.507812 557.945312 L 637.507812 557.945312 C 672.695312 557.945312 685.425781 557.699219 688.003906 556.949219 Z M 695.492188 499.882812 C 701.8125 497.304688 708.882812 490.8125 712.046875 484.65625 C 716.207031 476.421875 721.53125 477.171875 661.46875 477.417969 C 609.472656 477.667969 608.308594 477.667969 604.648438 479.417969 C 597.164062 482.914062 591.671875 490.3125 590.757812 498.136719 L 590.257812 502.296875 L 640.503906 502.046875 L 690.75 501.800781 L 695.492188 499.886719 Z M 695.492188 499.882812 " fill-opacity="1" fill-rule="nonzero"/></g><path fill="#f8fdfb" d="M 483.695312 620.753906 C 461.484375 616.179688 445.511719 604.699219 437.359375 587.480469 C 431.121094 574.417969 431.285156 576.332031 430.953125 522.84375 L 430.703125 474.761719 L 461.484375 474.761719 L 461.734375 520.761719 C 461.980469 564.105469 462.148438 566.933594 463.644531 570.675781 C 467.304688 579.578125 474.460938 586.398438 483.363281 589.5625 C 490.683594 592.140625 506.65625 592.804688 513.5625 590.808594 C 525.207031 587.480469 532.113281 582.070312 536.355469 573.007812 L 538.519531 568.347656 L 538.933594 521.757812 L 539.347656 475.171875 L 554.988281 474.921875 L 570.628906 474.757812 L 570.382812 522.757812 C 570.050781 569.675781 570.050781 571.003906 568.21875 576.914062 C 561.644531 598.625 547.503906 612.1875 524.292969 619.171875 C 517.808594 621.085938 515.144531 621.417969 503.164062 621.667969 C 493.597656 621.835938 487.6875 621.585938 483.699219 620.753906 Z M 483.695312 620.753906 " fill-opacity="1" fill-rule="nonzero"/><path fill="#f8fdfb" d="M 108.175781 618.011719 L 93.867188 617.84375 L 94.03125 546.46875 L 94.28125 475.175781 L 102.683594 474.925781 L 111.003906 474.679688 L 126.808594 489.902344 C 135.460938 498.21875 152.933594 515.109375 165.574219 527.421875 L 188.703125 549.796875 L 190.949219 547.964844 C 192.277344 546.96875 201.84375 538.230469 212.410156 528.5 C 222.890625 518.765625 240.359375 502.628906 251.09375 492.726562 L 270.644531 474.761719 L 289.363281 474.761719 L 289.363281 617.84375 L 274.804688 617.84375 C 266.820312 617.84375 259.996094 617.925781 259.664062 618.09375 C 259.25 618.175781 258.832031 598.542969 258.582031 574.417969 L 258.167969 530.660156 L 240.699219 546.46875 C 206.59375 577.414062 199.9375 583.15625 196.609375 584.652344 C 192.199219 586.648438 185.128906 586.648438 180.554688 584.570312 C 178.222656 583.492188 168.742188 574.921875 151.355469 557.949219 C 137.210938 544.222656 125.398438 532.992188 125.148438 532.992188 C 124.902344 532.992188 124.570312 552.125 124.484375 575.585938 C 124.316406 603.203125 123.902344 618.175781 123.402344 618.175781 C 122.988281 618.257812 116.082031 618.175781 108.179688 618.011719 Z M 108.175781 618.011719 " fill-opacity="1" fill-rule="nonzero"/><path fill="#f8fdfb" d="M 307.996094 617.929688 C 307.832031 617.761719 307.664062 585.902344 307.664062 547.132812 C 307.664062 493.480469 307.910156 476.507812 308.664062 475.757812 C 309.328125 475.09375 313.988281 474.761719 324.050781 474.761719 L 338.445312 474.761719 L 338.445312 588.730469 L 416.726562 588.730469 L 418.722656 590.808594 C 420.71875 592.71875 420.800781 593.21875 420.800781 603.953125 C 420.800781 613.601562 420.632812 615.265625 419.300781 616.429688 C 417.972656 617.597656 412.066406 617.761719 363.066406 618.011719 C 332.953125 618.175781 308.160156 618.09375 307.992188 617.929688 Z M 307.996094 617.929688 " fill-opacity="1" fill-rule="nonzero"/><path fill="#f8fdfb" d="M 588.347656 617.929688 C 588.179688 617.761719 588.015625 611.109375 588.015625 603.121094 L 588.015625 588.730469 L 718.371094 588.730469 L 717.625 593.054688 C 716.125 601.042969 711.300781 608.445312 704.644531 612.855469 C 697.160156 617.847656 697.324219 617.761719 640.589844 618.015625 C 612.054688 618.179688 588.511719 618.097656 588.347656 617.933594 Z M 588.347656 617.929688 " fill-opacity="1" fill-rule="nonzero"/><path fill="#f8fdfb" d="M 588.179688 498.300781 C 588.761719 488.320312 593.585938 481 602.15625 476.925781 C 605.820312 475.179688 606.898438 475.179688 661.972656 474.925781 L 718.042969 474.679688 L 717.542969 478.507812 C 716.210938 487.824219 707.476562 498.558594 697.992188 502.382812 L 693.25 504.292969 L 640.507812 504.542969 L 587.765625 504.789062 Z M 588.179688 498.300781 " fill-opacity="1" fill-rule="nonzero"/><path fill="#446ca6" d="M 219.234375 618.175781 C 218.902344 617.84375 218.652344 609.609375 218.652344 599.957031 L 218.652344 582.324219 L 227.136719 574.503906 C 241.863281 560.859375 247.101562 556.285156 248.101562 556.285156 C 248.765625 556.285156 248.933594 564.601562 248.601562 587.230469 L 248.1875 618.261719 L 233.960938 618.511719 C 226.222656 618.589844 219.570312 618.429688 219.238281 618.175781 Z M 219.234375 618.175781 " fill-opacity="1" fill-rule="nonzero"/><path fill="#446ca6" d="M 588.015625 545.882812 L 588.015625 531.328125 L 709.636719 531.328125 L 709.058594 535.320312 C 708.808594 537.484375 707.644531 541.226562 706.480469 543.722656 C 703.816406 549.546875 695.332031 557.949219 690.503906 559.445312 C 687.925781 560.195312 674.699219 560.445312 637.511719 560.445312 L 588.015625 560.445312 Z M 588.015625 545.882812 " fill-opacity="1" fill-rule="nonzero"/></svg>